<svg xmlns="http://www.w3.org/2000/svg" viewBox="0 0 200 200" fill="none">
  <rect width="200" height="200" rx="100" fill="#A52F0F" opacity="0.12"/>
  <g transform="translate(100,100)">
    <!-- Neck -->
    <path d="M-16 30 Q-16 45 -22 65 L22 65 Q16 45 16 30Z" fill="#A52F0F" opacity="0.7"/>
    <!-- Shoulders / suit jacket -->
    <path d="M-22 65 Q-50 70 -75 85 L-75 100 L75 100 L75 85 Q50 70 22 65Z" fill="#A52F0F" opacity="0.5"/>
    <path d="M-5 65 L-5 80 L5 80 L5 65Z" fill="#A52F0F" opacity="0.35"/>
    <!-- Head -->
    <ellipse cx="0" cy="-5" rx="30" ry="36" fill="#A52F0F" opacity="0.7"/>
    <!-- Hair - swept back, dramatic -->
    <path d="M-28 -12 Q-32 -30 -26 -42 Q-18 -50 -5 -46 Q5 -50 15 -46 Q26 -42 30 -30 Q32 -18 28 -12" fill="#A52F0F" opacity="0.85"/>
    <path d="M-26 -42 Q-30 -48 -24 -50 Q-15 -52 -5 -48" stroke="#A52F0F" stroke-width="2" fill="none" opacity="0.6"/>
    <path d="M5 -48 Q15 -52 24 -50 Q30 -48 26 -42" stroke="#A52F0F" stroke-width="2" fill="none" opacity="0.6"/>
    <!-- THE MUSTACHE - Nietzsche's iconic walrus mustache -->
    <path d="M-22 10 Q-18 6 -10 8 Q-5 9 0 8 Q5 9 10 8 Q18 6 22 10 Q20 16 14 18 Q8 19 0 16 Q-8 19 -14 18 Q-20 16 -22 10Z" fill="#A52F0F" opacity="0.9"/>
    <path d="M-20 12 Q-15 9 -8 10 Q0 11 8 10 Q15 9 20 12" stroke="#A52F0F" stroke-width="1" fill="none" opacity="0.5"/>
    <!-- Eyes - intense, deep-set -->
    <ellipse cx="-10" cy="-6" rx="4.5" ry="2.5" fill="#A52F0F"/>
    <ellipse cx="10" cy="-6" rx="4.5" ry="2.5" fill="#A52F0F"/>
    <!-- Heavy brows -->
    <path d="M-18 -12 Q-10 -16 -4 -12" stroke="#A52F0F" stroke-width="2.5" fill="none" opacity="0.8"/>
    <path d="M4 -12 Q10 -16 18 -12" stroke="#A52F0F" stroke-width="2.5" fill="none" opacity="0.8"/>
    <!-- Nose - prominent -->
    <path d="M0 -3 L-4 8 Q0 10 4 8Z" fill="#A52F0F" opacity="0.5"/>
  </g>
</svg>